# xmcd
#
# Track frame offsets:
# 150
# 14296
# 29049
# 47329
# 60919
# 79191
# 98031
# 111331
# 122671
# 138302
#
# Disc length: 2054 seconds
#
#
# Revision: 0
# Processed by: cddbd v1.5.2PL0 Copyright (c) Steve Scherf et al.
# Submitted via: FreeRIP 2.945 
#
DISCID=7a08040a
DTITLE=Reba McEntire - What Am I Gonna Do About You
DYEAR=1900
DGENRE=Country
TTITLE0=Why Not Tonight
TTITLE1=What Am I Gonna Do About You
TTITLE2=Lookin For A New Love Story
TTITLE3=Take Me Back
TTITLE4=My Mind Is On You
TTITLE5=Let The Music Lift You Up
TTITLE6=I Heard Her Cryin
TTITLE7=No Such Thing
TTITLE8=One Promise Too Late
TTITLE9=Till It Snows In Mexico
EXTD=
EXTT0=
EXTT1=
EXTT2=
EXTT3=
EXTT4=
EXTT5=
EXTT6=
EXTT7=
EXTT8=
EXTT9=
PLAYORDER=
